<svg width="64" height="64" viewBox="0 0 64 64" fill="none" xmlns="http://www.w3.org/2000/svg">
<g clip-path="url(#clip0_2023_500)">
<rect width="64" height="64" fill="#C0C0C0"/>
<rect width="118" height="118" fill="#C0C0C0"/>
<path d="M16 12L88 12V21H93V43H88V52L16 52L16 43H11L11 21H16L16 12ZM22 26H20L20 38H22V36H24V34H28V36H30V38H32V36H34V34H38V36H40V34L48 34L48 36H50V38H54V36H56L56 34H64L64 36H66V34L70 34V36H72V38H74V36H76V34H80V36H82V38H84V26L82 26V28H80V30H76V28H74V26H72V28H70V30L66 30V28H64V30H56V28H54V26H50V28H48V30L40 30V28H38V30H34V28H32V26H30V28H28V30H24L24 28L22 28V26Z" fill="#BBCCDF"/>
<path d="M80 13H76V15H74V17H72V19H70V21H68V23H66V25H64V27H62V29H60V30H64V28H66V27H68V29H66V30H70V28L72 28V26H74V28H76V27H78V25H80V23L82 23V21H84V19L88 19V13H82V15H80V13ZM78 17V15H80V17H78ZM76 19V17H78V19H76ZM74 21V19H76V21H74ZM72 23V21H74V23H72ZM70 25V23L72 23V25L70 25ZM70 25H68V27H70V25Z" fill="#D5E0EC"/>
<path d="M70 34H66V36L64 36L64 34H62V35H60V34H56L56 36H54V38H52V39H50V41H48V43H46V45H44V47H42V49H40V51H44V49H46V51H54V49H56V47H58V45H60V43H62V41H64V39L66 39V37H68V35H70V34ZM48 47V49H46V47H48ZM50 45V47H48V45H50ZM52 43V45H50V43H52ZM54 41V43H52V41H54ZM56 39V41H54V39H56ZM58 37V39H56V37H58ZM58 37H60L60 35H58L58 37Z" fill="#D5E0EC"/>
<path d="M38 13V15L40 15V13H48V15L46 15V17H44V19H42V21H40V23H38V25L36 25V27H34V28H32V26H30V28H28V30H24L24 29H26V27H24V28H22V25H24V23H26V21L28 21V19H30V17H32V15H34V13L38 13ZM36 17H38V15H36V17ZM34 19H36V17H34V19ZM32 21H34V19H32V21ZM30 23H32V21H30V23ZM28 25V27L26 27V25L28 25ZM28 25H30L30 23H28L28 25Z" fill="#D5E0EC"/>
<path d="M28 34V35H26V37H24V39H22L22 41H20V43H18L18 45H16L16 43H12L12 41H10L10 37H12V35H14V33H16V31H18V29H20L20 33H18V35H20V38H22V36H24V34H28ZM14 39H12V41H14V39ZM16 37H18V35H16V37ZM16 37H14V39H16V37Z" fill="#D5E0EC"/>
<path d="M16 12L88 12V13L16 13V12Z" fill="#F1F5F9"/>
<path d="M16 51L88 51V52L16 52V51Z" fill="#F1F5F9"/>
<path d="M61 14H57V15H55V16H53V17H51V19H49V20H47V22H45V24H47V22H49V21H51V22H55V23H57V24L63 24V23H65V21H63V22L55 22V21H57V20L59 20V19H61V18H63V15H61V14ZM51 19H53V18H55V17H57V16L61 16V17H59V18L57 18V19H55V20H51V19Z" fill="#59697B"/>
<path d="M16 10L88 10V12L16 12V10Z" fill="black"/>
<path d="M16 52L88 52V54L16 54V52Z" fill="black"/>
<path d="M9 22H11L11 42H9L9 22Z" fill="black"/>
<path d="M14 12L16 12V18H14V12Z" fill="black"/>
<path d="M14 46H16V52H14V46Z" fill="black"/>
<path d="M11 20H16V22H11V20Z" fill="black"/>
<path d="M11 42H16V44H11V42Z" fill="black"/>
<path d="M16 18H18V20H16L16 18Z" fill="black"/>
<path d="M16 44H18V46H16L16 44Z" fill="black"/>
<path d="M18 26H20L20 38H18L18 26Z" fill="black"/>
<path d="M95 22H93V42H95V22Z" fill="black"/>
<path d="M90 12H88V18H90V12Z" fill="black"/>
<path d="M90 46H88V52H90V46Z" fill="black"/>
<path d="M93 20H88V22H93V20Z" fill="black"/>
<path d="M93 42H88V44H93V42Z" fill="black"/>
<path d="M88 18H86V20H88V18Z" fill="black"/>
<path d="M88 44H86V46H88V44Z" fill="black"/>
<path d="M86 26H84V38H86V26Z" fill="black"/>
<path d="M56 34H64V36H56V34Z" fill="black"/>
<path d="M40 34L48 34V36L40 36V34Z" fill="black"/>
<path d="M56 28H64V30H56V28Z" fill="black"/>
<path d="M40 28L48 28V30L40 30V28Z" fill="black"/>
<path d="M80 26H82V28H80V26Z" fill="black"/>
<path d="M22 26H24L24 28H22L22 26Z" fill="black"/>
<path d="M80 36H82V38H80V36Z" fill="black"/>
<path d="M22 36H24L24 38H22L22 36Z" fill="black"/>
<path d="M84 26H86V38H84V26Z" fill="black"/>
<path d="M82 24H84V26H82V24Z" fill="black"/>
<path d="M20 24H22V26L20 26V24Z" fill="black"/>
<path d="M82 38H84V40H82V38Z" fill="black"/>
<path d="M20 38H22V40H20V38Z" fill="black"/>
<path d="M70 36H72V38H70V36Z" fill="black"/>
<path d="M72 38H74V40H72V38Z" fill="black"/>
<path d="M74 36H76V38H74V36Z" fill="black"/>
<path d="M28 36H30V38H28V36Z" fill="black"/>
<path d="M30 38H32V40H30V38Z" fill="black"/>
<path d="M32 36H34V38H32V36Z" fill="black"/>
<path d="M70 26H72V28H70V26Z" fill="black"/>
<path d="M72 24H74V26H72V24Z" fill="black"/>
<path d="M74 26H76V28H74V26Z" fill="black"/>
<path d="M28 26H30V28H28V26Z" fill="black"/>
<path d="M30 24H32V26H30V24Z" fill="black"/>
<path d="M32 26H34V28H32V26Z" fill="black"/>
<path d="M66 28H70V30H66V28Z" fill="black"/>
<path d="M34 28H38V30H34V28Z" fill="black"/>
<path d="M64 26L66 26V28L64 28V26Z" fill="black"/>
<path d="M38 26H40V28H38V26Z" fill="black"/>
<path d="M64 36L66 36V38L64 38V36Z" fill="black"/>
<path d="M38 36H40V38H38V36Z" fill="black"/>
<path d="M76 28H80V30H76V28Z" fill="black"/>
<path d="M24 28H28V30H24V28Z" fill="black"/>
<path d="M76 34H80V36H76V34Z" fill="black"/>
<path d="M24 34H28V36H24V34Z" fill="black"/>
<path d="M66 34H70V36H66V34Z" fill="black"/>
<path d="M34 34H38V36H34V34Z" fill="black"/>
<path d="M48 26H50V28H48V26Z" fill="black"/>
<path d="M48 36H50V38H48V36Z" fill="black"/>
<path d="M50 24H54V26H50V24Z" fill="black"/>
<path d="M50 38H54V40H50V38Z" fill="black"/>
<path d="M54 26H56V28H54V26Z" fill="black"/>
<path d="M54 36H56V38H54V36Z" fill="black"/>
</g>
<defs>
<clipPath id="clip0_2023_500">
<rect width="64" height="64" fill="white"/>
</clipPath>
</defs>
</svg>
