<svg width="86" height="48" viewBox="0 0 86 48" fill="none" xmlns="http://www.w3.org/2000/svg">
<path d="M82 38H80V40H75V42H70V44H61V46H25V44H16V42H11V40H6V38H2V18H82V38Z" fill="#CEC9B3"/>
<path fill-rule="evenodd" clip-rule="evenodd" d="M59 30H61V28H68V30H67V32H65V34H63V36H61V38H59V40H57V42H55V44H53V46H45V44H43V46H39V44H41V42H43V40H45V38H47V36H49V34H51V32H53V30H55V28H59V30ZM45 44H47V42H45V44ZM47 42H49V40H47V42ZM49 40H51V38H49V40ZM51 38H53V36H51V38ZM53 36H55V34H53V36ZM55 34H57V32H55V34ZM57 32H59V30H57V32Z" fill="#DFDCCD"/>
<path fill-rule="evenodd" clip-rule="evenodd" d="M20 32H22V30H30V32H28V34H26V36H24V38H22V40H20V42H12V40H10V36H12V34H14V32H16V30H20V32ZM12 40H14V38H12V40ZM14 38H16V36H14V38ZM16 36H18V34H16V36ZM18 34H20V32H18V34Z" fill="#DFDCCD"/>
<path d="M61 2H70V4H75V6H80V8H82V22H80V24H75V26H70V28H61V30H25V28H16V26H11V24H6V22H4V8H6V6H11V4H16V2H25V0H61V2Z" fill="#646872"/>
<g opacity="0.45">
<path fill-rule="evenodd" clip-rule="evenodd" d="M47 22H49V20H57V22H55V24H53V26H51V28H43V26H41V28H37V26H39V24H41V22H43V20H47V22ZM43 26H45V24H43V26ZM45 24H47V22H45V24Z" fill="#9095A0"/>
<path fill-rule="evenodd" clip-rule="evenodd" d="M16 22H18V20H26V22H24V24H22V26H14V24H12V26H11V24H10V22H12V20H14V18H16V22ZM14 24H16V22H14V24Z" fill="#9095A0"/>
</g>
<path d="M61 48H25V46H61V48ZM25 46H16V44H25V46ZM70 46H61V44H70V46ZM16 44H11V42H16V44ZM75 44H70V42H75V44ZM11 42H6V40H11V42ZM80 42H75V40H80V42ZM6 40H4V38H6V40ZM82 40H80V38H82V40ZM4 12H6V14H4V20H6V22H4V38H2V10H4V12ZM84 38H82V22H80V20H82V14H80V12H82V10H84V38ZM61 30H25V28H61V30ZM25 28H16V26H25V28ZM70 28H61V26H70V28ZM16 26H11V24H16V26ZM75 26H70V24H75V26ZM11 24H6V22H11V24ZM80 24H75V22H80V24ZM61 22H25V20H61V22ZM25 20H16V18H25V20ZM70 20H61V18H70V20ZM16 18H11V16H16V18ZM75 18H70V16H75V18ZM59 17H27V15H59V17ZM11 16H6V14H11V16ZM80 16H75V14H80V16ZM27 15H18V13H27V15ZM68 15H59V13H68V15ZM18 13H16V9H18V13ZM70 13H68V9H70V13ZM6 10H4V8H6V10ZM82 10H80V8H82V10ZM27 9H18V7H27V9ZM68 9H59V7H68V9ZM11 8H6V6H11V8ZM80 8H75V6H80V8ZM59 5V7H27V5H59ZM16 6H11V4H16V6ZM75 6H70V4H75V6ZM25 4H16V2H25V4ZM70 4H61V2H70V4ZM61 2H25V0H61V2Z" fill="black"/>
<path d="M61 31H25V30H61V31ZM25 29H16V28H25V29ZM70 29H61V28H70V29ZM16 27H11V26H16V27ZM75 27H70V26H75V27ZM11 25H6V24H11V25ZM80 25H75V24H80V25ZM6 23H4V22H6V23ZM82 23H80V22H82V23Z" fill="#F9F7F1"/>
<path d="M61 23H25V22H61V23ZM25 21H16V20H25V21ZM70 21H61V20H70V21ZM16 19H11V18H16V19ZM75 19H70V18H75V19ZM11 17H6V16H11V17ZM80 17H75V16H80V17ZM6 15H4V14H6V15ZM82 15H80V14H82V15Z" fill="#989BA4"/>
</svg>
