<svg width="86" height="44" viewBox="0 0 86 44" fill="none" xmlns="http://www.w3.org/2000/svg">
<path d="M61 44H25V42H61V44ZM25 42H16V40H25V42ZM70 42H61V40H70V42ZM16 40H11V38H16V40ZM75 40H70V38H75V40ZM11 38H6V36H11V38ZM80 38H75V36H80V38ZM6 36H4V34H6V36ZM82 36H80V34H82V36ZM4 12H6V14H4V20H6V22H4V34H2V10H4V12ZM84 34H82V22H80V20H82V14H80V12H82V10H84V34ZM61 30H25V28H61V30ZM25 28H16V26H25V28ZM70 28H61V26H70V28ZM16 26H11V24H16V26ZM75 26H70V24H75V26ZM11 24H6V22H11V24ZM80 24H75V22H80V24ZM61 22H25V20H61V22ZM25 20H16V18H25V20ZM70 20H61V18H70V20ZM16 18H11V16H16V18ZM75 18H70V16H75V18ZM11 16H6V14H11V16ZM59 16H27V14H59V16ZM80 16H75V14H80V16ZM27 14H20V12H27V14ZM66 14H59V12H66V14ZM20 12H18V10H20V12ZM68 12H66V10H68V12ZM6 10H4V8H6V10ZM27 10H20V8H27V10ZM66 10H59V8H66V10ZM82 10H80V8H82V10ZM11 8H6V6H11V8ZM59 6V8H27V6H59ZM80 8H75V6H80V8ZM16 6H11V4H16V6ZM75 6H70V4H75V6ZM25 4H16V2H25V4ZM70 4H61V2H70V4ZM61 2H25V0H61V2Z" fill="black"/>
</svg>
