<svg width="86" height="48" viewBox="0 0 86 48" fill="none" xmlns="http://www.w3.org/2000/svg">
<path d="M61 48H25V46H61V48ZM25 46H16V44H25V46ZM70 46H61V44H70V46ZM16 44H11V42H16V44ZM75 44H70V42H75V44ZM11 42H6V40H11V42ZM80 42H75V40H80V42ZM6 40H4V38H6V40ZM82 40H80V38H82V40ZM4 12H6V14H4V20H6V22H4V38H2V10H4V12ZM84 38H82V22H80V20H82V14H80V12H82V10H84V38ZM61 30H25V28H61V30ZM25 28H16V26H25V28ZM70 28H61V26H70V28ZM16 26H11V24H16V26ZM75 26H70V24H75V26ZM11 24H6V22H11V24ZM80 24H75V22H80V24ZM61 22H25V20H61V22ZM25 20H16V18H25V20ZM70 20H61V18H70V20ZM16 18H11V16H16V18ZM75 18H70V16H75V18ZM59 17H27V15H59V17ZM11 16H6V14H11V16ZM80 16H75V14H80V16ZM27 15H18V13H27V15ZM68 15H59V13H68V15ZM18 13H16V9H18V13ZM70 13H68V9H70V13ZM6 10H4V8H6V10ZM82 10H80V8H82V10ZM27 9H18V7H27V9ZM68 9H59V7H68V9ZM11 8H6V6H11V8ZM80 8H75V6H80V8ZM59 5V7H27V5H59ZM16 6H11V4H16V6ZM75 6H70V4H75V6ZM25 4H16V2H25V4ZM70 4H61V2H70V4ZM61 2H25V0H61V2Z" fill="black"/>
</svg>
