<svg width="86" height="44" viewBox="0 0 86 44" fill="none" xmlns="http://www.w3.org/2000/svg">
<path d="M82 34H80V36H75V38H70V40H61V42H25V40H16V38H11V36H6V34H2V22H82V34Z" fill="#CEC9B3"/>
<path fill-rule="evenodd" clip-rule="evenodd" d="M60 28H62V26H69V28H68V30H66V32H64V34H62V36H60V38H58V40H56V42H54V44H46V42H44V44H40V42H42V40H44V38H46V36H48V34H50V32H52V30H54V28H56V26H60V28ZM46 42H48V40H46V42ZM48 40H50V38H48V40ZM50 38H52V36H50V38ZM52 36H54V34H52V36ZM54 34H56V32H54V34ZM56 32H58V30H56V32ZM58 30H60V28H58V30Z" fill="#DFDCCD"/>
<path fill-rule="evenodd" clip-rule="evenodd" d="M21 30H23V28H31V30H29V32H27V34H25V36H23V38H21V40H13V38H11V34H13V32H15V30H17V28H21V30ZM13 38H15V36H13V38ZM15 36H17V34H15V36ZM17 34H19V32H17V34ZM19 32H21V30H19V32Z" fill="#DFDCCD"/>
<path d="M61 4H70V6H75V8H80V10H82V20H80V22H75V24H70V26H61V28H25V26H16V24H11V22H6V20H4V10H6V8H11V6H16V4H25V2H61V4Z" fill="#646872"/>
<g opacity="0.45">
<path fill-rule="evenodd" clip-rule="evenodd" d="M47 22H49V20H57V22H55V24H53V26H51V28H43V26H41V28H37V26H39V24H41V22H43V20H47V22ZM43 26H45V24H43V26ZM45 24H47V22H45V24Z" fill="#9095A0"/>
<path fill-rule="evenodd" clip-rule="evenodd" d="M16 22H18V20H26V22H24V24H22V26H14V24H12V26H11V24H10V22H12V20H14V18H16V22ZM14 24H16V22H14V24Z" fill="#9095A0"/>
<path d="M59 10H66V12H59V14H27V12H20V10H27V8H59V10Z" fill="#9095A0"/>
</g>
<path d="M61 44H25V42H61V44ZM25 42H16V40H25V42ZM70 42H61V40H70V42ZM16 40H11V38H16V40ZM75 40H70V38H75V40ZM11 38H6V36H11V38ZM80 38H75V36H80V38ZM6 36H4V34H6V36ZM82 36H80V34H82V36ZM4 12H6V14H4V20H6V22H4V34H2V10H4V12ZM84 34H82V22H80V20H82V14H80V12H82V10H84V34ZM61 30H25V28H61V30ZM25 28H16V26H25V28ZM70 28H61V26H70V28ZM16 26H11V24H16V26ZM75 26H70V24H75V26ZM11 24H6V22H11V24ZM80 24H75V22H80V24ZM61 22H25V20H61V22ZM25 20H16V18H25V20ZM70 20H61V18H70V20ZM16 18H11V16H16V18ZM75 18H70V16H75V18ZM11 16H6V14H11V16ZM59 16H27V14H59V16ZM80 16H75V14H80V16ZM27 14H20V12H27V14ZM66 14H59V12H66V14ZM20 12H18V10H20V12ZM68 12H66V10H68V12ZM6 10H4V8H6V10ZM27 10H20V8H27V10ZM66 10H59V8H66V10ZM82 10H80V8H82V10ZM11 8H6V6H11V8ZM59 6V8H27V6H59ZM80 8H75V6H80V8ZM16 6H11V4H16V6ZM75 6H70V4H75V6ZM25 4H16V2H25V4ZM70 4H61V2H70V4ZM61 2H25V0H61V2Z" fill="black"/>
</svg>
